<svg width="31" height="31" viewBox="0 0 31 31" fill="none" xmlns="http://www.w3.org/2000/svg">
<path d="M22.2089 15.5059H21.8674C20.6488 15.5059 19.4303 15.5059 18.2117 15.5059C17.9846 15.5059 17.92 15.4375 17.9237 15.216C17.9348 14.3519 17.9237 13.4879 17.9237 12.6312C17.9237 11.9721 18.0566 11.3517 18.533 10.8551C18.7465 10.644 18.9996 10.4771 19.2778 10.3639C19.556 10.2508 19.8538 10.1938 20.154 10.1959C20.8187 10.1701 21.4834 10.1793 22.148 10.1849C22.3326 10.1849 22.4083 10.1295 22.4065 9.93193C22.3991 8.81677 22.3991 7.70161 22.4065 6.58646C22.4065 6.42214 22.3493 6.35013 22.1849 6.32613C20.9468 6.12618 19.6922 6.04704 18.4388 6.08981C16.9452 6.17474 15.6011 6.64369 14.5616 7.76623C13.9373 8.4537 13.5038 9.29265 13.3043 10.1996C13.1473 10.8912 13.0735 11.599 13.0846 12.3081C13.0846 13.2608 13.0846 14.2135 13.0846 15.1661C13.0772 15.5059 13.0772 15.5059 12.732 15.5059C11.6242 15.5059 10.5312 15.5059 9.43081 15.5059C9.22402 15.5059 9.13909 15.5612 9.14094 15.7754C9.14094 17.1121 9.14094 18.4488 9.14094 19.7856C9.14094 19.9831 9.25725 19.9905 9.40311 19.9905C10.533 19.9905 11.663 19.9905 12.7929 19.9905C13.0864 19.9905 13.0846 19.9905 13.0846 20.2767C13.0846 23.696 13.0846 27.1153 13.0846 30.5346C13.0846 30.8134 13.0846 30.8171 12.8206 30.7691C10.2677 30.3324 7.86836 29.2521 5.84901 27.6304C3.85085 26.0487 2.27737 23.995 1.27022 21.654C0.579464 20.0504 0.162575 18.3422 0.0369064 16.6007C-0.122395 14.2939 0.235351 11.9806 1.08404 9.82964C1.93273 7.6787 3.25094 5.74437 4.94249 4.16782C6.58093 2.63144 8.53844 1.47584 10.6752 0.783583C12.3945 0.205999 14.204 -0.0560784 16.0165 0.00998936C18.5744 0.099821 21.0707 0.819699 23.2836 2.10574C25.4966 3.39178 27.3579 5.20422 28.7023 7.38221C30.1075 9.6675 30.8959 12.2782 30.9904 14.9593C31.0849 17.6404 30.4823 20.3001 29.2414 22.6787C28.0359 25.015 26.2468 27 24.0478 28.4409C22.2856 29.618 20.2952 30.4107 18.2062 30.7673C17.9385 30.8134 17.9274 30.8042 17.9274 30.5346C17.9274 27.1079 17.9274 23.6812 17.9274 20.2545C17.9274 20.0496 17.9902 19.9849 18.1933 19.9868C19.2198 19.9868 20.2463 19.9868 21.2729 19.9868C21.4723 19.9868 21.5554 19.9314 21.5849 19.7228C21.7695 18.4008 21.9874 17.0807 22.1905 15.7588C22.196 15.6997 22.1997 15.6277 22.2089 15.5059Z" fill="white"/>
</svg>
