<svg width="31" height="46" viewBox="0 0 31 46" fill="none" xmlns="http://www.w3.org/2000/svg">
<path d="M4.77809 33.2451C4.96665 32.488 5.41163 30.7015 5.68315 29.6114C6.70134 25.5235 1.00189 21.692 1.80375 14.6559C2.60561 7.61986 8.11429 -1.13818 19.3033 1.64872C32.7293 4.99281 30.3461 17.4236 28.6566 21.3443C26.4039 26.5718 18.3329 30.3502 17.7672 32.6212C17.3147 34.4381 16.9753 35.8007 16.8622 36.2549M4.77809 33.2451L11.8201 34.75M4.77809 33.2451L3.08112 40.0582L6.21403 40.8385M16.8622 36.2549L11.8201 34.75M16.8622 36.2549L15.1652 43.068L12.0323 42.2877M11.8201 34.75C12.3801 32.5 12.6168 31.3 13.4168 28.5C14.4168 25 10.9384 22 9.9276 24.5C8.91678 27 15.464 27.5 17 22C17.4361 20.4384 16.951 18.6107 16.3844 17.5323M6.21403 40.8385L6.43036 43.7867L10.0108 44.6785L12.0323 42.2877M6.21403 40.8385L12.0323 42.2877M16.3844 17.5323C14.9556 14.8124 11.392 13.8841 11.0108 16.0323C10.585 18.4323 14.4158 18.0323 16.3844 17.5323Z" stroke="white" stroke-width="2" stroke-linejoin="round"/>
</svg>
