<svg width="127" height="26" viewBox="0 0 127 26" fill="none" xmlns="http://www.w3.org/2000/svg">
<path d="M15.9782 25H12.2342L13.4582 19.24H7.95023L6.72623 25H3.01823L4.24223 19.24H0.498233V15.892H4.92623L6.18623 10.06H2.01023V6.604H6.90623L8.13023 0.771999H11.8742L10.6502 6.604H16.1582L17.3822 0.771999H21.0902L19.8662 6.604H23.6462V10.06H19.1462L17.8862 15.892H22.1702V19.24H17.2022L15.9782 25ZM14.1782 15.892L15.4022 10.06H9.89423L8.67023 15.892H14.1782ZM46.7675 25H32.7635V0.735999H37.2995V20.968H46.7675V25ZM75.221 22.912C73.013 24.496 70.253 25.288 66.941 25.288C63.101 25.288 59.993 24.172 57.617 21.94C55.265 19.708 54.089 16.672 54.089 12.832C54.089 9.088 55.301 6.064 57.725 3.76C60.173 1.456 63.257 0.303998 66.977 0.303998C69.737 0.303998 72.101 0.819999 74.069 1.852V6.496C71.861 5.176 69.521 4.516 67.049 4.516C64.625 4.516 62.669 5.272 61.181 6.784C59.693 8.296 58.949 10.312 58.949 12.832C58.949 15.4 59.669 17.428 61.109 18.916C62.573 20.38 64.577 21.112 67.121 21.112C68.369 21.112 69.581 20.896 70.757 20.464V14.74H66.293V10.852H75.221V22.516H75.185L75.221 22.912ZM94.71 25H84.882V0.735999H93.486C96.078 0.735999 98.094 1.348 99.534 2.572C100.974 3.796 101.694 5.38 101.694 7.324C101.694 8.644 101.334 9.796 100.614 10.78C99.894 11.74 98.97 12.376 97.842 12.688C99.138 13 100.206 13.636 101.046 14.596C101.886 15.532 102.306 16.816 102.306 18.448C102.306 20.368 101.634 21.94 100.29 23.164C98.946 24.388 97.086 25 94.71 25ZM92.91 4.444H89.418V10.96H92.154C93.786 10.96 95.01 10.636 95.826 9.988C96.642 9.34 97.05 8.512 97.05 7.504C97.05 6.568 96.702 5.824 96.006 5.272C95.334 4.72 94.302 4.444 92.91 4.444ZM93.126 14.596H89.418V21.292H93.306C96.21 21.292 97.662 20.188 97.662 17.98C97.662 15.724 96.15 14.596 93.126 14.596ZM126.347 4.48H120.191V25H115.619V4.48H109.463V0.735999H126.347V4.48Z" fill="url(#paint0_linear_508_13818)"/>
<defs>
<linearGradient id="paint0_linear_508_13818" x1="-11" y1="11.2703" x2="139.426" y2="11.2703" gradientUnits="userSpaceOnUse">
<stop stop-color="#B76AFE"/>
<stop offset="0.214583" stop-color="#58EBFF"/>
<stop offset="0.459375" stop-color="#91FF51"/>
<stop offset="0.740625" stop-color="#F8FF64"/>
<stop offset="1" stop-color="#FF5B7B"/>
</linearGradient>
</defs>
</svg>
