<svg width="315" height="36" viewBox="0 0 315 36" fill="none" xmlns="http://www.w3.org/2000/svg">
<path d="M21.0926 0.0078125H29.4938V22.4905C29.5744 24.8501 28.9487 27.1802 27.6969 29.1821C26.4451 31.1839 24.6242 32.7665 22.4673 33.727C20.0458 34.8211 17.4101 35.3594 14.7535 35.3023C12.0844 35.3622 9.43563 34.8239 7.00154 33.727C4.89129 32.7658 3.10182 31.2182 1.84628 29.2687C0.585072 27.237 -0.0553189 24.8811 0.0037468 22.4905V0.0078125H8.42401V21.7554C8.40418 22.8815 8.67722 23.9934 9.21639 24.9822C9.73715 25.9132 10.5075 26.6803 11.4408 27.197C12.4572 27.7462 13.5985 28.0225 14.7535 27.999C15.9088 28.0251 17.0508 27.7487 18.0663 27.197C18.996 26.6789 19.7629 25.9119 20.2811 24.9822C20.8257 23.9986 21.1023 22.8891 21.083 21.7649L21.0926 0.0078125Z" fill="white"/>
<path d="M69.2165 0.0078125V34.8631H62.066L48.2041 14.748H47.9654V34.8631H39.5547V0.0078125H46.8102L60.5194 20.056H60.8154V0.0078125H69.2165Z" fill="white"/>
<path d="M92.1674 34.8635H79.2793V0.00825226H92.1484C95.3311 -0.0856761 98.4863 0.623502 101.323 2.07036C103.862 3.42297 105.934 5.50882 107.27 8.05619C108.73 10.9471 109.449 14.1555 109.361 17.3929C109.453 20.6358 108.738 23.8506 107.28 26.7488C105.949 29.3025 103.875 31.3929 101.332 32.7442C98.5038 34.2089 95.3519 34.9378 92.1674 34.8635V34.8635ZM87.7091 27.6748H91.881C93.5839 27.7401 95.2791 27.4134 96.8358 26.7201C98.2146 26.036 99.3069 24.8862 99.9194 23.4742C100.689 21.5659 101.044 19.5157 100.96 17.4598C101.048 15.4058 100.689 13.3572 99.9099 11.4548C99.2868 10.0482 98.1883 8.90581 96.8072 8.22803C95.2178 7.53141 93.4909 7.20497 91.7569 7.27335H87.7473L87.7091 27.6748Z" fill="white"/>
<path d="M119.062 34.8631V0.0078125H143.359V6.84331H127.483V13.9843H142.118V20.8484H127.483V28.0085H143.359V34.8536L119.062 34.8631Z" fill="white"/>
<path d="M153.422 34.8631V0.0078125H177.212V6.84331H161.842V13.9843H175.694V20.8484H161.842V34.8631H153.422Z" fill="white"/>
<path d="M194.643 0.0078125V34.8631H186.223V0.0078125H194.643Z" fill="white"/>
<path d="M234.367 0.0078125V34.8631H227.216L213.354 14.748H213.125V34.8631H204.695V0.0078125H211.951L225.66 20.056H225.946V0.0078125H234.367Z" fill="white"/>
<path d="M244.43 34.8631V0.0078125H268.726V6.84331H252.85V13.9843H267.485V20.8484H252.85V28.0085H268.726V34.8536L244.43 34.8631Z" fill="white"/>
<path d="M291.677 34.8635H278.799V0.00824701H291.658C294.844 -0.0856469 298.002 0.623486 300.842 2.07035C303.381 3.42296 305.454 5.50882 306.79 8.05618C308.25 10.9471 308.968 14.1555 308.881 17.3929C308.968 20.6353 308.253 23.849 306.8 26.7488C305.465 29.2997 303.392 31.389 300.852 32.7442C298.02 34.2089 294.865 34.9377 291.677 34.8635V34.8635ZM287.219 27.6748H291.353C293.059 27.7412 294.757 27.4145 296.317 26.7201C297.693 26.0356 298.782 24.8856 299.391 23.4742C300.164 21.5666 300.522 19.5164 300.441 17.4598C300.526 15.4051 300.165 13.3563 299.382 11.4548C298.761 10.0463 297.662 8.90311 296.279 8.22802C294.693 7.53283 292.969 7.20642 291.238 7.27335H287.219V27.6748Z" fill="white"/>
<path d="M315.001 12.9824H71.873V20.9731H315.001V12.9824Z" fill="url(#paint0_linear_13_248)"/>
<defs>
<linearGradient id="paint0_linear_13_248" x1="71.873" y1="16.9825" x2="315.001" y2="16.9825" gradientUnits="userSpaceOnUse">
<stop stop-color="#BB64FF"/>
<stop offset="0.04" stop-color="#A67DFC"/>
<stop offset="0.19" stop-color="#55DDEF"/>
<stop offset="0.25" stop-color="#5CE8AC"/>
<stop offset="0.35" stop-color="#67F846"/>
<stop offset="0.39" stop-color="#6BFF1D"/>
<stop offset="0.47" stop-color="#AAFF20"/>
<stop offset="0.56" stop-color="#E7FF23"/>
<stop offset="0.6" stop-color="#FFFF24"/>
<stop offset="0.68" stop-color="#FFDB23"/>
<stop offset="0.77" stop-color="#FFB522"/>
<stop offset="0.81" stop-color="#FFA722"/>
<stop offset="0.86" stop-color="#FF8B42"/>
<stop offset="0.92" stop-color="#FF6E63"/>
<stop offset="0.97" stop-color="#FF5C78"/>
<stop offset="1" stop-color="#FF567F"/>
</linearGradient>
</defs>
</svg>
