<svg width="174" height="145" viewBox="0 0 174 145" fill="none" xmlns="http://www.w3.org/2000/svg">
<path d="M173.971 17.5598C172.649 20.0024 170.869 22.0977 169.123 24.209C165.682 28.3721 161.776 32.1091 157.484 35.3435C156.739 35.9056 156.478 36.4677 156.498 37.4136C157.05 61.899 150.053 83.999 136.026 103.752C125.091 119.151 110.937 130.486 93.6201 137.581C85.4172 140.925 76.8167 143.144 68.0432 144.18C58.6336 145.322 49.2374 145.309 39.868 143.903C25.7806 141.825 12.2846 136.718 0.270572 128.919C0.173386 128.834 0.082913 128.741 0 128.642C19.423 130.571 36.847 125.642 52.3254 113.461C51.1403 113.342 49.944 113.285 48.77 113.093C34.7517 110.808 25.1028 102.909 19.7629 89.4874C19.6779 89.2749 19.6176 89.0556 19.5393 88.8431C19.3 88.2124 19.5035 88.0273 20.1431 88.1302C22.0158 88.4596 23.9114 88.6353 25.8117 88.6557C29.0095 88.6652 32.1942 88.2387 35.2817 87.3876C32.9849 86.8276 30.7321 86.0936 28.542 85.1917C15.6529 79.6896 6.8202 66.3775 6.70839 52.3023C6.70839 51.0296 6.69721 51.0342 7.78844 51.6031C12.3135 54.0155 17.3213 55.3313 22.4239 55.4487C14.953 49.8117 9.90158 42.525 7.86671 33.255C5.83183 23.985 7.19587 15.204 11.7978 6.80456C12.6721 7.82593 13.4682 8.76961 14.2799 9.69729C30.3107 28.0317 50.134 39.4198 73.8616 43.6607C77.3142 44.2776 80.7936 44.6409 84.2842 44.9059C85.6818 45.0133 85.6416 45.0225 85.4135 43.5944C83.1259 29.3661 87.2024 17.3656 98.1147 8.24636C112.495 -3.77928 133.023 -2.45859 146.082 10.9426C146.529 11.3996 146.916 11.5984 147.623 11.4453C154.557 9.94211 161.238 7.41023 167.455 3.9301L169.445 2.81962C168.18 6.94663 166.18 10.7991 163.544 14.1826C160.975 17.5278 157.889 20.3063 154.42 22.7146C156.14 22.7443 157.775 22.3719 159.42 22.0291C164.133 21.0719 168.739 19.6296 173.168 17.7243C173.436 17.61 173.68 17.3953 174 17.5689L173.971 17.5598Z" fill="url(#paint0_linear_508_13824)"/>
<path d="M173.971 17.5598C172.649 20.0024 170.869 22.0977 169.123 24.209C165.682 28.3721 161.776 32.1091 157.484 35.3435C156.739 35.9056 156.478 36.4677 156.498 37.4136C157.05 61.899 150.053 83.999 136.026 103.752C125.091 119.151 110.937 130.486 93.6201 137.581C85.4172 140.925 76.8167 143.144 68.0432 144.18C58.6336 145.322 49.2374 145.309 39.868 143.903C25.7806 141.825 12.2846 136.718 0.270572 128.919C0.173386 128.834 0.082913 128.741 0 128.642C19.423 130.571 36.847 125.642 52.3254 113.461C51.1403 113.342 49.944 113.285 48.77 113.093C34.7517 110.808 25.1028 102.909 19.7629 89.4874C19.6779 89.2749 19.6176 89.0556 19.5393 88.8431C19.3 88.2124 19.5035 88.0273 20.1431 88.1302C22.0158 88.4596 23.9114 88.6353 25.8117 88.6557C29.0095 88.6652 32.1942 88.2387 35.2817 87.3876C32.9849 86.8276 30.7321 86.0936 28.542 85.1917C15.6529 79.6896 6.8202 66.3775 6.70839 52.3023C6.70839 51.0296 6.69721 51.0342 7.78844 51.6031C12.3135 54.0155 17.3213 55.3313 22.4239 55.4487C14.953 49.8117 9.90158 42.525 7.86671 33.255C5.83183 23.985 7.19587 15.204 11.7978 6.80456C12.6721 7.82593 13.4682 8.76961 14.2799 9.69729C30.3107 28.0317 50.134 39.4198 73.8616 43.6607C77.3142 44.2776 80.7936 44.6409 84.2842 44.9059C85.6818 45.0133 85.6416 45.0225 85.4135 43.5944C83.1259 29.3661 87.2024 17.3656 98.1147 8.24636C112.495 -3.77928 133.023 -2.45859 146.082 10.9426C146.529 11.3996 146.916 11.5984 147.623 11.4453C154.557 9.94211 161.238 7.41023 167.455 3.9301L169.445 2.81962C168.18 6.94663 166.18 10.7991 163.544 14.1826C160.975 17.5278 157.889 20.3063 154.42 22.7146C156.14 22.7443 157.775 22.3719 159.42 22.0291C164.133 21.0719 168.739 19.6296 173.168 17.7243C173.436 17.61 173.68 17.3953 174 17.5689L173.971 17.5598Z" fill="url(#paint1_linear_508_13824)" fill-opacity="0.5"/>
<defs>
<linearGradient id="paint0_linear_508_13824" x1="164" y1="-14" x2="2.53294e-06" y2="158" gradientUnits="userSpaceOnUse">
<stop stop-color="#B868FF"/>
<stop offset="0.261458" stop-color="#7CECFF"/>
<stop offset="0.490625" stop-color="#67F846"/>
<stop offset="0.740625" stop-color="#F9FF51"/>
<stop offset="1" stop-color="#FF577F"/>
</linearGradient>
<linearGradient id="paint1_linear_508_13824" x1="-102.5" y1="193.5" x2="211.458" y2="-48.2905" gradientUnits="userSpaceOnUse">
<stop offset="0.161928" stop-color="#262526"/>
<stop offset="0.700674" stop-color="#262526" stop-opacity="0"/>
</linearGradient>
</defs>
</svg>
