<svg width="56" height="56" viewBox="0 0 56 56" fill="none" xmlns="http://www.w3.org/2000/svg">
<path d="M34.5958 12.3496C31.9204 12.3496 29.7419 14.5369 29.7419 17.2196C29.7419 17.8428 29.8668 18.4384 30.0808 18.9843L20.9521 24.9219C20.0623 23.8352 18.7133 23.1296 17.2035 23.1296C14.528 23.1296 12.3496 25.3169 12.3496 27.9996C12.3496 30.6823 14.528 32.8696 17.2035 32.8696C18.7229 32.8696 20.0791 32.1617 20.969 31.0624L30.0809 37.0145C29.8664 37.5608 29.7419 38.1556 29.7419 38.7796C29.7419 41.4623 31.9204 43.6496 34.5958 43.6496C37.2712 43.6496 39.4496 41.4623 39.4496 38.7796C39.4496 36.0969 37.2712 33.9096 34.5958 33.9096C33.0859 33.9096 31.7369 34.6152 30.8471 35.7019L21.7184 29.7643C21.9324 29.2184 22.0573 28.6228 22.0573 27.9996C22.0573 27.3756 21.9328 26.7808 21.7183 26.2345L30.8303 20.2824C31.7201 21.3817 33.0763 22.0896 34.5958 22.0896C37.2712 22.0896 39.4496 19.9023 39.4496 17.2196C39.4496 14.5369 37.2712 12.3496 34.5958 12.3496ZM34.5958 13.8763C36.4405 13.8763 37.9265 15.3662 37.9265 17.2196C37.9265 19.073 36.4405 20.5629 34.5958 20.5629C32.751 20.5629 31.265 19.073 31.265 17.2196C31.265 15.3662 32.751 13.8763 34.5958 13.8763ZM17.2035 24.6563C19.0482 24.6563 20.5342 26.1462 20.5342 27.9996C20.5342 29.853 19.0482 31.3429 17.2035 31.3429C15.3588 31.3429 13.8727 29.853 13.8727 27.9996C13.8727 26.1462 15.3587 24.6563 17.2035 24.6563ZM34.5958 35.4363C36.4405 35.4363 37.9265 36.9263 37.9265 38.7796C37.9265 40.633 36.4405 42.1229 34.5958 42.1229C32.751 42.1229 31.265 40.633 31.265 38.7796C31.265 36.9263 32.751 35.4363 34.5958 35.4363Z" fill="white" stroke="white" stroke-width="0.5"/>
<circle cx="28" cy="28" r="27" stroke="white" stroke-width="2"/>
</svg>
