<svg width="93" height="95" viewBox="0 0 93 95" fill="none" xmlns="http://www.w3.org/2000/svg">
<path d="M79.3222 13.2019C69.527 3.74066 55.9567 -0.840558 42.1823 0.454135C20.9595 2.54556 3.71596 19.0778 1.16514 39.7929C-0.365346 51.943 3.30783 64.0932 11.1643 73.5545C8.8176 78.7332 6.26678 82.6173 3.81799 85.1071C2.08344 86.8997 1.67531 89.5887 2.8997 91.7797C3.92003 93.672 5.96068 94.8671 8.10337 94.8671C8.40946 94.8671 8.8176 94.8671 9.12369 94.7675C16.0619 93.5724 23.0001 90.8834 29.6323 86.8997C37.0807 89.8875 45.1412 90.8834 53.2018 89.7879C74.3226 86.9993 91.0559 69.8696 92.7905 49.1545C94.1169 35.7096 89.1173 22.5635 79.3222 13.2019ZM85.036 48.5569C83.5055 65.6867 69.7311 79.8287 52.2835 82.2189C45.0392 83.2149 37.7949 82.1193 31.1628 79.1316C29.9384 78.534 28.5099 78.6336 27.3875 79.4304C22.7961 82.3185 18.2046 84.5095 13.5111 85.9038C15.6538 82.8165 17.6944 78.9324 19.6331 74.4508C20.2453 73.0565 19.9392 71.463 18.9188 70.3675C11.3684 62.201 7.8993 51.7439 9.22573 40.7888C11.3684 23.659 25.551 10.0149 43.1006 8.32188C54.4262 7.02719 65.6498 10.9113 73.7104 18.6794C81.873 26.4476 85.9543 37.4027 85.036 48.5569Z" fill="url(#paint0_linear_478_13050)"/>
<defs>
<linearGradient id="paint0_linear_478_13050" x1="18" y1="11.7792" x2="67.1824" y2="86.035" gradientUnits="userSpaceOnUse">
<stop stop-color="#AB7BFF"/>
<stop offset="0.219791" stop-color="#59EAFF"/>
<stop offset="0.50625" stop-color="#84FF52"/>
<stop offset="0.761458" stop-color="#F4FB4E"/>
<stop offset="1" stop-color="#FF5A7B"/>
</linearGradient>
</defs>
</svg>
