<svg width="86" height="91" viewBox="0 0 86 91" fill="none" xmlns="http://www.w3.org/2000/svg">
<path d="M73.0874 12.3914C63.9674 3.34741 51.3324 -1.03179 38.5074 0.20581C18.7474 2.20501 2.69243 18.0082 0.317427 37.8098C-1.10757 49.4242 2.31243 61.0386 9.62743 70.0826C7.44243 75.033 5.06743 78.7458 2.78743 81.1258C1.17243 82.8394 0.792427 85.4098 1.93243 87.5042C2.88243 89.313 4.78243 90.4554 6.77743 90.4554C7.06243 90.4554 7.44243 90.4554 7.72743 90.3602C14.1874 89.2178 20.6474 86.6474 26.8224 82.8394C33.7574 85.6954 41.2624 86.6474 48.7674 85.6002C68.4324 82.9346 84.0124 66.5602 85.6274 46.7586C86.8624 33.9066 82.2074 21.3402 73.0874 12.3914ZM78.4074 46.1874C76.9824 62.5618 64.1574 76.0802 47.9124 78.365C41.1674 79.317 34.4224 78.2698 28.2474 75.4138C27.1074 74.8426 25.7774 74.9378 24.7324 75.6994C20.4574 78.4602 16.1824 80.5546 11.8124 81.8874C13.8074 78.9362 15.7074 75.2234 17.5124 70.9394C18.0824 69.6066 17.7974 68.0834 16.8474 67.0362C9.81743 59.2298 6.58743 49.2338 7.82243 38.7618C9.81743 22.3874 23.0224 9.34501 39.3624 7.72661C49.9074 6.48901 60.3574 10.2018 67.8624 17.6274C75.4624 25.053 79.2624 35.525 78.4074 46.1874Z" fill="#EF5278"/>
<path d="M50.7629 60.7535C49.1479 61.9911 47.5329 62.5623 46.3929 62.7527C45.3479 63.0383 44.3979 61.9911 44.6829 60.9439L50.4779 40.1903C51.5229 36.5727 48.7679 32.9551 44.9679 32.9551C37.8429 32.9551 33.9479 37.5247 31.6679 40.0951C31.1929 40.6663 31.1929 41.4279 31.5729 41.9991C32.0479 42.6655 32.9979 42.7607 33.5679 42.2847C35.1829 41.0471 36.7979 40.4759 37.9379 40.1903C38.9829 39.9047 39.9329 40.9519 39.6479 41.9991L33.8529 62.7527C32.8079 66.3703 35.5629 69.9879 39.3629 69.9879C46.4879 69.9879 50.3829 65.4183 52.6629 62.8479C53.1379 62.2767 53.1379 61.5151 52.7579 60.9439C52.2829 60.3727 51.3329 60.2775 50.7629 60.7535Z" fill="#EF5278"/>
<path d="M48.3872 28.6709C51.85 28.6709 54.6572 25.8578 54.6572 22.3877C54.6572 18.9176 51.85 16.1045 48.3872 16.1045C44.9244 16.1045 42.1172 18.9176 42.1172 22.3877C42.1172 25.8578 44.9244 28.6709 48.3872 28.6709Z" fill="#EF5278"/>
</svg>
