<svg width="103" height="88" viewBox="0 0 103 88" fill="none" xmlns="http://www.w3.org/2000/svg">
<path fill-rule="evenodd" clip-rule="evenodd" d="M51.5 81.2281C36.8547 73.7615 6.4375 54.847 6.4375 26.6888C6.4375 15.4355 15.8234 6.27971 27.3594 6.27971C38.8954 6.27971 48.2812 15.4355 48.2812 26.6888C48.2812 28.422 49.7233 29.8286 51.5 29.8286C53.2767 29.8286 54.7188 28.422 54.7188 26.6888C54.7188 15.4355 64.1046 6.27971 75.6406 6.27971C87.1766 6.27971 96.5625 15.4355 96.5625 26.6888C96.5625 54.847 66.1453 73.7615 51.5 81.2281ZM75.6406 0C65.1218 0 56.0771 5.88409 51.5 14.3994C46.9229 5.88409 37.8782 0 27.3594 0C12.2763 0 0 11.9691 0 26.6888C0 59.2679 35.0007 80.1229 50.0387 87.5769L50.058 87.5455C50.4958 87.7652 50.9721 87.916 51.5 87.916C52.0279 87.916 52.5042 87.7652 52.942 87.5455L52.9613 87.5769C67.9993 80.1229 103 59.2679 103 26.6888C103 11.9691 90.7301 0 75.6406 0Z" fill="url(#paint0_linear_478_13066)"/>
<defs>
<linearGradient id="paint0_linear_478_13066" x1="5" y1="6.81915" x2="79.1294" y2="78.4089" gradientUnits="userSpaceOnUse">
<stop stop-color="#B66BFE"/>
<stop offset="0.240625" stop-color="#5DE5FF"/>
<stop offset="0.521875" stop-color="#7EFF73"/>
<stop offset="0.782291" stop-color="#FBFF64"/>
<stop offset="1" stop-color="#FF5B7B"/>
</linearGradient>
</defs>
</svg>
