<svg width="62" height="88" viewBox="0 0 62 88" fill="none" xmlns="http://www.w3.org/2000/svg">
<mask id="path-1-outside-1_478_13083" maskUnits="userSpaceOnUse" x="0" y="-0.331055" width="62" height="88" fill="black">
<rect fill="white" y="-0.331055" width="62" height="88"/>
<path d="M52.798 13.7599C50.9351 13.7587 49.1413 14.4477 47.7807 15.6872V14.6432C47.7807 12.7437 47.0068 10.9218 45.6289 9.57755C44.251 8.2333 42.3817 7.47658 40.4315 7.47354C38.5769 7.46806 36.7903 8.15343 35.4377 9.38929V8.83865C35.4377 6.93713 34.6622 5.11348 33.2817 3.7689C31.9013 2.42432 30.0289 1.66895 28.0767 1.66895C26.1244 1.66895 24.2521 2.42432 22.8716 3.7689C21.4912 5.11348 20.7156 6.93713 20.7156 8.83865V9.49253C19.6681 8.54761 18.3607 7.92033 16.9531 7.68735C15.5456 7.45437 14.0988 7.62576 12.7896 8.1806C11.4804 8.73544 10.3655 9.64969 9.58112 10.8116C8.79671 11.9736 8.37677 13.3329 8.37261 14.7235V23.9008C6.58149 24.2364 4.96608 25.1686 3.80349 26.5375C2.6409 27.9063 2.00359 29.6266 2.00088 31.4032V44.951C1.9641 48.983 3.07631 52.9458 5.2138 56.3988C7.3513 59.8518 10.4303 62.6596 14.1083 64.51V84.6999C14.1083 85.0041 14.2324 85.2959 14.4533 85.511C14.6742 85.7262 14.9737 85.847 15.2861 85.847C15.5985 85.847 15.898 85.7262 16.1189 85.511C16.3398 85.2959 16.4639 85.0041 16.4639 84.6999V63.7758C16.4647 63.5519 16.3982 63.3327 16.2726 63.1452C16.1471 62.9576 15.9679 62.81 15.7572 62.7204C8.94972 59.8181 4.3682 52.6828 4.3682 44.951V31.3917C4.3682 29.9739 4.94644 28.6142 5.97571 27.6117C7.00499 26.6092 8.40098 26.0459 9.8566 26.0459H32.9055C32.3284 29.0974 29.9847 36.5998 20.9276 35.9918H14.5206C14.2082 35.9918 13.9086 36.1126 13.6878 36.3278C13.4669 36.5429 13.3428 36.8347 13.3428 37.1389C13.3428 37.4432 13.4669 37.7349 13.6878 37.9501C13.9086 38.1652 14.2082 38.2861 14.5206 38.2861H19.9618C20.1267 38.3664 20.4565 38.5843 20.6214 38.6876L21.0572 38.9744C22.4166 39.7379 23.73 40.5767 24.9909 41.4866C27.4694 43.174 29.6058 45.2937 31.292 47.7386C33.0822 50.5032 33.0704 52.6599 33.0704 55.9408C33.0704 56.245 33.1945 56.5368 33.4154 56.7519C33.6362 56.9671 33.9358 57.0879 34.2482 57.0879C34.5605 57.0879 34.8601 56.9671 35.081 56.7519C35.3019 56.5368 35.4259 56.245 35.4259 55.9408C35.4259 55.4819 35.6851 44.6069 47.3803 44.0792C47.6927 44.064 47.986 43.9285 48.1959 43.7026C48.4057 43.4768 48.5148 43.1789 48.4992 42.8747C48.4836 42.5704 48.3445 42.2847 48.1126 42.0803C47.8807 41.876 47.5749 41.7697 47.2625 41.7849C40.031 42.1176 36.4742 45.9146 34.7311 49.4823C34.3786 48.4364 33.8919 47.4381 33.2824 46.5112C31.4464 43.8148 29.1049 41.4797 26.3807 39.6282C25.674 39.1235 24.9556 38.6302 24.2136 38.1599C30.338 37.2766 33.1411 32.7338 34.4131 29.2236C35.0138 30.0604 35.7916 30.7621 36.6941 31.2814C37.5967 31.8008 38.603 32.1258 39.6453 32.2345C40.6877 32.3432 41.7418 32.2331 42.7368 31.9116C43.7318 31.5901 44.6445 31.0647 45.4134 30.3707V31.1278C45.4066 32.5271 45.8209 33.8977 46.6053 35.0701C47.3896 36.2425 48.5096 37.1652 49.8266 37.7243C51.1437 38.2833 52.6001 38.4541 54.0157 38.2155C55.4314 37.9769 56.7441 37.3394 57.7918 36.3818V44.951C57.8375 48.6652 56.7875 52.3141 54.7665 55.464C52.7455 58.614 49.8385 61.1326 46.391 62.7204C46.1803 62.81 46.0011 62.9576 45.8756 63.1452C45.75 63.3327 45.6835 63.5519 45.6843 63.7758V84.6999C45.6843 85.0041 45.8084 85.2959 46.0293 85.511C46.2501 85.7262 46.5497 85.847 46.8621 85.847C47.1744 85.847 47.474 85.7262 47.6949 85.511C47.9158 85.2959 48.0398 85.0041 48.0398 84.6999V64.51C51.7179 62.6596 54.7969 59.8518 56.9344 56.3988C59.0719 52.9458 60.1841 48.983 60.1473 44.951V20.9296C60.1442 19.031 59.3693 17.2109 57.992 15.8673C56.6148 14.5237 54.7473 13.766 52.798 13.7599ZM10.7399 23.7516V14.7235C10.8451 13.5086 11.4149 12.3765 12.3365 11.5514C13.2581 10.7263 14.4642 10.2684 15.716 10.2684C16.9678 10.2684 18.1739 10.7263 19.0955 11.5514C20.017 12.3765 20.5869 13.5086 20.6921 14.7235V23.7287L10.7399 23.7516ZM23.0947 23.7516V8.83865C23.0947 7.54866 23.6208 6.3115 24.5573 5.39934C25.4939 4.48717 26.764 3.97472 28.0884 3.97472C29.4129 3.97472 30.683 4.48717 31.6196 5.39934C32.5561 6.3115 33.0822 7.54866 33.0822 8.83865V23.7516H23.0947ZM40.4432 29.9807C39.1188 29.9807 37.8486 29.4682 36.9121 28.5561C35.9756 27.6439 35.4495 26.4067 35.4495 25.1168V14.6432C35.4495 13.3533 35.9756 12.1161 36.9121 11.2039C37.8486 10.2918 39.1188 9.77932 40.4432 9.77932C41.7677 9.77932 43.0378 10.2918 43.9743 11.2039C44.9108 12.1161 45.437 13.3533 45.437 14.6432V25.1168C45.4339 26.4058 44.9067 27.6412 43.9709 28.5527C43.0351 29.4642 41.7667 29.9777 40.4432 29.9807ZM52.798 35.9918C52.1407 35.9933 51.4895 35.8687 50.8816 35.625C50.2737 35.3814 49.721 35.0236 49.2551 34.5719C48.7892 34.1202 48.4192 33.5836 48.1663 32.9927C47.9133 32.4018 47.7823 31.7681 47.7807 31.1278V20.9296C47.8431 19.679 48.397 18.4997 49.3278 17.636C50.2586 16.7724 51.4948 16.2907 52.7804 16.2907C54.0659 16.2907 55.3021 16.7724 56.2329 17.636C57.1637 18.4997 57.7176 19.679 57.78 20.9296V31.1278C57.7769 32.4149 57.2514 33.6486 56.3181 34.5598C55.3848 35.471 54.1194 35.9857 52.798 35.9918Z"/>
</mask>
<path d="M52.798 13.7599C50.9351 13.7587 49.1413 14.4477 47.7807 15.6872V14.6432C47.7807 12.7437 47.0068 10.9218 45.6289 9.57755C44.251 8.2333 42.3817 7.47658 40.4315 7.47354C38.5769 7.46806 36.7903 8.15343 35.4377 9.38929V8.83865C35.4377 6.93713 34.6622 5.11348 33.2817 3.7689C31.9013 2.42432 30.0289 1.66895 28.0767 1.66895C26.1244 1.66895 24.2521 2.42432 22.8716 3.7689C21.4912 5.11348 20.7156 6.93713 20.7156 8.83865V9.49253C19.6681 8.54761 18.3607 7.92033 16.9531 7.68735C15.5456 7.45437 14.0988 7.62576 12.7896 8.1806C11.4804 8.73544 10.3655 9.64969 9.58112 10.8116C8.79671 11.9736 8.37677 13.3329 8.37261 14.7235V23.9008C6.58149 24.2364 4.96608 25.1686 3.80349 26.5375C2.6409 27.9063 2.00359 29.6266 2.00088 31.4032V44.951C1.9641 48.983 3.07631 52.9458 5.2138 56.3988C7.3513 59.8518 10.4303 62.6596 14.1083 64.51V84.6999C14.1083 85.0041 14.2324 85.2959 14.4533 85.511C14.6742 85.7262 14.9737 85.847 15.2861 85.847C15.5985 85.847 15.898 85.7262 16.1189 85.511C16.3398 85.2959 16.4639 85.0041 16.4639 84.6999V63.7758C16.4647 63.5519 16.3982 63.3327 16.2726 63.1452C16.1471 62.9576 15.9679 62.81 15.7572 62.7204C8.94972 59.8181 4.3682 52.6828 4.3682 44.951V31.3917C4.3682 29.9739 4.94644 28.6142 5.97571 27.6117C7.00499 26.6092 8.40098 26.0459 9.8566 26.0459H32.9055C32.3284 29.0974 29.9847 36.5998 20.9276 35.9918H14.5206C14.2082 35.9918 13.9086 36.1126 13.6878 36.3278C13.4669 36.5429 13.3428 36.8347 13.3428 37.1389C13.3428 37.4432 13.4669 37.7349 13.6878 37.9501C13.9086 38.1652 14.2082 38.2861 14.5206 38.2861H19.9618C20.1267 38.3664 20.4565 38.5843 20.6214 38.6876L21.0572 38.9744C22.4166 39.7379 23.73 40.5767 24.9909 41.4866C27.4694 43.174 29.6058 45.2937 31.292 47.7386C33.0822 50.5032 33.0704 52.6599 33.0704 55.9408C33.0704 56.245 33.1945 56.5368 33.4154 56.7519C33.6362 56.9671 33.9358 57.0879 34.2482 57.0879C34.5605 57.0879 34.8601 56.9671 35.081 56.7519C35.3019 56.5368 35.4259 56.245 35.4259 55.9408C35.4259 55.4819 35.6851 44.6069 47.3803 44.0792C47.6927 44.064 47.986 43.9285 48.1959 43.7026C48.4057 43.4768 48.5148 43.1789 48.4992 42.8747C48.4836 42.5704 48.3445 42.2847 48.1126 42.0803C47.8807 41.876 47.5749 41.7697 47.2625 41.7849C40.031 42.1176 36.4742 45.9146 34.7311 49.4823C34.3786 48.4364 33.8919 47.4381 33.2824 46.5112C31.4464 43.8148 29.1049 41.4797 26.3807 39.6282C25.674 39.1235 24.9556 38.6302 24.2136 38.1599C30.338 37.2766 33.1411 32.7338 34.4131 29.2236C35.0138 30.0604 35.7916 30.7621 36.6941 31.2814C37.5967 31.8008 38.603 32.1258 39.6453 32.2345C40.6877 32.3432 41.7418 32.2331 42.7368 31.9116C43.7318 31.5901 44.6445 31.0647 45.4134 30.3707V31.1278C45.4066 32.5271 45.8209 33.8977 46.6053 35.0701C47.3896 36.2425 48.5096 37.1652 49.8266 37.7243C51.1437 38.2833 52.6001 38.4541 54.0157 38.2155C55.4314 37.9769 56.7441 37.3394 57.7918 36.3818V44.951C57.8375 48.6652 56.7875 52.3141 54.7665 55.464C52.7455 58.614 49.8385 61.1326 46.391 62.7204C46.1803 62.81 46.0011 62.9576 45.8756 63.1452C45.75 63.3327 45.6835 63.5519 45.6843 63.7758V84.6999C45.6843 85.0041 45.8084 85.2959 46.0293 85.511C46.2501 85.7262 46.5497 85.847 46.8621 85.847C47.1744 85.847 47.474 85.7262 47.6949 85.511C47.9158 85.2959 48.0398 85.0041 48.0398 84.6999V64.51C51.7179 62.6596 54.7969 59.8518 56.9344 56.3988C59.0719 52.9458 60.1841 48.983 60.1473 44.951V20.9296C60.1442 19.031 59.3693 17.2109 57.992 15.8673C56.6148 14.5237 54.7473 13.766 52.798 13.7599ZM10.7399 23.7516V14.7235C10.8451 13.5086 11.4149 12.3765 12.3365 11.5514C13.2581 10.7263 14.4642 10.2684 15.716 10.2684C16.9678 10.2684 18.1739 10.7263 19.0955 11.5514C20.017 12.3765 20.5869 13.5086 20.6921 14.7235V23.7287L10.7399 23.7516ZM23.0947 23.7516V8.83865C23.0947 7.54866 23.6208 6.3115 24.5573 5.39934C25.4939 4.48717 26.764 3.97472 28.0884 3.97472C29.4129 3.97472 30.683 4.48717 31.6196 5.39934C32.5561 6.3115 33.0822 7.54866 33.0822 8.83865V23.7516H23.0947ZM40.4432 29.9807C39.1188 29.9807 37.8486 29.4682 36.9121 28.5561C35.9756 27.6439 35.4495 26.4067 35.4495 25.1168V14.6432C35.4495 13.3533 35.9756 12.1161 36.9121 11.2039C37.8486 10.2918 39.1188 9.77932 40.4432 9.77932C41.7677 9.77932 43.0378 10.2918 43.9743 11.2039C44.9108 12.1161 45.437 13.3533 45.437 14.6432V25.1168C45.4339 26.4058 44.9067 27.6412 43.9709 28.5527C43.0351 29.4642 41.7667 29.9777 40.4432 29.9807ZM52.798 35.9918C52.1407 35.9933 51.4895 35.8687 50.8816 35.625C50.2737 35.3814 49.721 35.0236 49.2551 34.5719C48.7892 34.1202 48.4192 33.5836 48.1663 32.9927C47.9133 32.4018 47.7823 31.7681 47.7807 31.1278V20.9296C47.8431 19.679 48.397 18.4997 49.3278 17.636C50.2586 16.7724 51.4948 16.2907 52.7804 16.2907C54.0659 16.2907 55.3021 16.7724 56.2329 17.636C57.1637 18.4997 57.7176 19.679 57.78 20.9296V31.1278C57.7769 32.4149 57.2514 33.6486 56.3181 34.5598C55.3848 35.471 54.1194 35.9857 52.798 35.9918Z" fill="url(#paint0_linear_478_13083)"/>
<path d="M52.798 13.7599C50.9351 13.7587 49.1413 14.4477 47.7807 15.6872V14.6432C47.7807 12.7437 47.0068 10.9218 45.6289 9.57755C44.251 8.2333 42.3817 7.47658 40.4315 7.47354C38.5769 7.46806 36.7903 8.15343 35.4377 9.38929V8.83865C35.4377 6.93713 34.6622 5.11348 33.2817 3.7689C31.9013 2.42432 30.0289 1.66895 28.0767 1.66895C26.1244 1.66895 24.2521 2.42432 22.8716 3.7689C21.4912 5.11348 20.7156 6.93713 20.7156 8.83865V9.49253C19.6681 8.54761 18.3607 7.92033 16.9531 7.68735C15.5456 7.45437 14.0988 7.62576 12.7896 8.1806C11.4804 8.73544 10.3655 9.64969 9.58112 10.8116C8.79671 11.9736 8.37677 13.3329 8.37261 14.7235V23.9008C6.58149 24.2364 4.96608 25.1686 3.80349 26.5375C2.6409 27.9063 2.00359 29.6266 2.00088 31.4032V44.951C1.9641 48.983 3.07631 52.9458 5.2138 56.3988C7.3513 59.8518 10.4303 62.6596 14.1083 64.51V84.6999C14.1083 85.0041 14.2324 85.2959 14.4533 85.511C14.6742 85.7262 14.9737 85.847 15.2861 85.847C15.5985 85.847 15.898 85.7262 16.1189 85.511C16.3398 85.2959 16.4639 85.0041 16.4639 84.6999V63.7758C16.4647 63.5519 16.3982 63.3327 16.2726 63.1452C16.1471 62.9576 15.9679 62.81 15.7572 62.7204C8.94972 59.8181 4.3682 52.6828 4.3682 44.951V31.3917C4.3682 29.9739 4.94644 28.6142 5.97571 27.6117C7.00499 26.6092 8.40098 26.0459 9.8566 26.0459H32.9055C32.3284 29.0974 29.9847 36.5998 20.9276 35.9918H14.5206C14.2082 35.9918 13.9086 36.1126 13.6878 36.3278C13.4669 36.5429 13.3428 36.8347 13.3428 37.1389C13.3428 37.4432 13.4669 37.7349 13.6878 37.9501C13.9086 38.1652 14.2082 38.2861 14.5206 38.2861H19.9618C20.1267 38.3664 20.4565 38.5843 20.6214 38.6876L21.0572 38.9744C22.4166 39.7379 23.73 40.5767 24.9909 41.4866C27.4694 43.174 29.6058 45.2937 31.292 47.7386C33.0822 50.5032 33.0704 52.6599 33.0704 55.9408C33.0704 56.245 33.1945 56.5368 33.4154 56.7519C33.6362 56.9671 33.9358 57.0879 34.2482 57.0879C34.5605 57.0879 34.8601 56.9671 35.081 56.7519C35.3019 56.5368 35.4259 56.245 35.4259 55.9408C35.4259 55.4819 35.6851 44.6069 47.3803 44.0792C47.6927 44.064 47.986 43.9285 48.1959 43.7026C48.4057 43.4768 48.5148 43.1789 48.4992 42.8747C48.4836 42.5704 48.3445 42.2847 48.1126 42.0803C47.8807 41.876 47.5749 41.7697 47.2625 41.7849C40.031 42.1176 36.4742 45.9146 34.7311 49.4823C34.3786 48.4364 33.8919 47.4381 33.2824 46.5112C31.4464 43.8148 29.1049 41.4797 26.3807 39.6282C25.674 39.1235 24.9556 38.6302 24.2136 38.1599C30.338 37.2766 33.1411 32.7338 34.4131 29.2236C35.0138 30.0604 35.7916 30.7621 36.6941 31.2814C37.5967 31.8008 38.603 32.1258 39.6453 32.2345C40.6877 32.3432 41.7418 32.2331 42.7368 31.9116C43.7318 31.5901 44.6445 31.0647 45.4134 30.3707V31.1278C45.4066 32.5271 45.8209 33.8977 46.6053 35.0701C47.3896 36.2425 48.5096 37.1652 49.8266 37.7243C51.1437 38.2833 52.6001 38.4541 54.0157 38.2155C55.4314 37.9769 56.7441 37.3394 57.7918 36.3818V44.951C57.8375 48.6652 56.7875 52.3141 54.7665 55.464C52.7455 58.614 49.8385 61.1326 46.391 62.7204C46.1803 62.81 46.0011 62.9576 45.8756 63.1452C45.75 63.3327 45.6835 63.5519 45.6843 63.7758V84.6999C45.6843 85.0041 45.8084 85.2959 46.0293 85.511C46.2501 85.7262 46.5497 85.847 46.8621 85.847C47.1744 85.847 47.474 85.7262 47.6949 85.511C47.9158 85.2959 48.0398 85.0041 48.0398 84.6999V64.51C51.7179 62.6596 54.7969 59.8518 56.9344 56.3988C59.0719 52.9458 60.1841 48.983 60.1473 44.951V20.9296C60.1442 19.031 59.3693 17.2109 57.992 15.8673C56.6148 14.5237 54.7473 13.766 52.798 13.7599ZM10.7399 23.7516V14.7235C10.8451 13.5086 11.4149 12.3765 12.3365 11.5514C13.2581 10.7263 14.4642 10.2684 15.716 10.2684C16.9678 10.2684 18.1739 10.7263 19.0955 11.5514C20.017 12.3765 20.5869 13.5086 20.6921 14.7235V23.7287L10.7399 23.7516ZM23.0947 23.7516V8.83865C23.0947 7.54866 23.6208 6.3115 24.5573 5.39934C25.4939 4.48717 26.764 3.97472 28.0884 3.97472C29.4129 3.97472 30.683 4.48717 31.6196 5.39934C32.5561 6.3115 33.0822 7.54866 33.0822 8.83865V23.7516H23.0947ZM40.4432 29.9807C39.1188 29.9807 37.8486 29.4682 36.9121 28.5561C35.9756 27.6439 35.4495 26.4067 35.4495 25.1168V14.6432C35.4495 13.3533 35.9756 12.1161 36.9121 11.2039C37.8486 10.2918 39.1188 9.77932 40.4432 9.77932C41.7677 9.77932 43.0378 10.2918 43.9743 11.2039C44.9108 12.1161 45.437 13.3533 45.437 14.6432V25.1168C45.4339 26.4058 44.9067 27.6412 43.9709 28.5527C43.0351 29.4642 41.7667 29.9777 40.4432 29.9807ZM52.798 35.9918C52.1407 35.9933 51.4895 35.8687 50.8816 35.625C50.2737 35.3814 49.721 35.0236 49.2551 34.5719C48.7892 34.1202 48.4192 33.5836 48.1663 32.9927C47.9133 32.4018 47.7823 31.7681 47.7807 31.1278V20.9296C47.8431 19.679 48.397 18.4997 49.3278 17.636C50.2586 16.7724 51.4948 16.2907 52.7804 16.2907C54.0659 16.2907 55.3021 16.7724 56.2329 17.636C57.1637 18.4997 57.7176 19.679 57.78 20.9296V31.1278C57.7769 32.4149 57.2514 33.6486 56.3181 34.5598C55.3848 35.471 54.1194 35.9857 52.798 35.9918Z" stroke="url(#paint1_linear_478_13083)" stroke-width="3" mask="url(#path-1-outside-1_478_13083)"/>
<defs>
<linearGradient id="paint0_linear_478_13083" x1="10.293" y1="8.95449" x2="55.5895" y2="79.2073" gradientUnits="userSpaceOnUse">
<stop stop-color="#AB7CFF"/>
<stop offset="0.225" stop-color="#60FCFF"/>
<stop offset="0.485416" stop-color="#7FFD66"/>
<stop offset="0.719791" stop-color="#F6FF6B"/>
<stop offset="1" stop-color="#FF6379"/>
</linearGradient>
<linearGradient id="paint1_linear_478_13083" x1="9.29297" y1="7.00648" x2="47.6147" y2="88.1545" gradientUnits="userSpaceOnUse">
<stop stop-color="#AA7DFF"/>
<stop offset="0.219791" stop-color="#62F5FF"/>
<stop offset="0.475" stop-color="#81FE5F"/>
<stop offset="0.740625" stop-color="#F7FF64"/>
<stop offset="1" stop-color="#FF6379"/>
</linearGradient>
</defs>
</svg>
