<svg width="103" height="91" viewBox="0 0 103 91" fill="none" xmlns="http://www.w3.org/2000/svg">
<path fill-rule="evenodd" clip-rule="evenodd" d="M51.5 83.3823C36.8547 75.7177 6.4375 56.3016 6.4375 27.3966C6.4375 15.8449 15.8234 6.44626 27.3594 6.44626C38.8954 6.44626 48.2812 15.8449 48.2812 27.3966C48.2812 29.1758 49.7233 30.6197 51.5 30.6197C53.2767 30.6197 54.7188 29.1758 54.7188 27.3966C54.7188 15.8449 64.1046 6.44626 75.6406 6.44626C87.1766 6.44626 96.5625 15.8449 96.5625 27.3966C96.5625 56.3016 66.1453 75.7177 51.5 83.3823ZM75.6406 0C65.1217 0 56.0771 6.04014 51.5 14.7813C46.9229 6.04014 37.8783 0 27.3594 0C12.2763 0 0 12.2866 0 27.3966C0 60.8398 35.0007 82.2478 50.0387 89.8995L50.058 89.8673C50.4958 90.0929 50.9721 90.2476 51.5 90.2476C52.0279 90.2476 52.5042 90.0929 52.942 89.8673L52.9613 89.8995C67.9993 82.2478 103 60.8398 103 27.3966C103 12.2866 90.7301 0 75.6406 0Z" fill="#EF5278"/>
</svg>
