<svg width="60" height="69" viewBox="0 0 60 69" fill="none" xmlns="http://www.w3.org/2000/svg">
<path d="M48.7971 0.5C43.0092 0.5 38.2931 5.21599 38.2931 11.004C38.2931 12.3598 38.5681 13.6551 39.0387 14.8412L19.1407 27.7383C17.215 25.377 14.2844 23.8428 11.004 23.8428C5.21612 23.8428 0.5 28.5588 0.5 34.3468C0.5 40.1349 5.21601 44.8509 11.004 44.8509C14.3055 44.8509 17.2515 43.3116 19.1771 40.9229L39.0389 53.8516C38.5673 55.0386 38.2931 56.332 38.2931 57.6896C38.2931 63.4776 43.0092 68.1937 48.7971 68.1937C54.585 68.1937 59.3012 63.4776 59.3012 57.6896C59.3012 51.9016 54.585 47.1856 48.7971 47.1856C45.5167 47.1856 42.5862 48.7198 40.6605 51.081L20.7624 38.184C21.233 36.9979 21.5081 35.7025 21.5081 34.3468C21.5081 32.9894 21.2339 31.6958 20.7623 30.5088L40.6241 17.5802C42.5497 19.9688 45.4958 21.5081 48.7971 21.5081C54.585 21.5081 59.3012 16.7921 59.3012 11.004C59.3012 5.21599 54.585 0.5 48.7971 0.5ZM48.7971 3.72312C52.8314 3.72312 56.078 6.96977 56.078 11.004C56.078 15.0383 52.8314 18.285 48.7971 18.285C44.7628 18.285 41.5162 15.0383 41.5162 11.004C41.5162 6.96977 44.7628 3.72312 48.7971 3.72312ZM11.004 27.0659C15.0383 27.0659 18.285 30.3125 18.285 34.3468C18.285 38.3811 15.0382 41.6278 11.004 41.6278C6.96989 41.6278 3.72312 38.3811 3.72312 34.3468C3.72312 30.3125 6.96978 27.0659 11.004 27.0659ZM48.7971 50.4087C52.8314 50.4087 56.078 53.6553 56.078 57.6896C56.078 61.7239 52.8314 64.9705 48.7971 64.9705C44.7628 64.9705 41.5162 61.7239 41.5162 57.6896C41.5162 53.6553 44.7628 50.4087 48.7971 50.4087Z" fill="white" stroke="white"/>
</svg>
