<svg width="122" height="122" viewBox="0 0 122 122" fill="none" xmlns="http://www.w3.org/2000/svg">
<mask id="path-1-outside-1_62_164" maskUnits="userSpaceOnUse" x="26.8379" y="22.0928" width="68" height="100" fill="black">
<rect fill="white" x="26.8379" y="22.0928" width="68" height="100"/>
<path d="M85.345 37.146C83.2359 37.1445 81.2053 37.9453 79.665 39.3859V38.1726C79.665 35.9648 78.7889 33.8472 77.229 32.2848C75.6691 30.7224 73.5529 29.8429 71.3451 29.8394C69.2456 29.833 67.2231 30.6296 65.6918 32.066V31.426C65.6918 29.2159 64.8139 27.0963 63.2511 25.5335C61.6883 23.9707 59.5687 23.0928 57.3586 23.0928C55.1485 23.0928 53.0289 23.9707 51.4661 25.5335C49.9033 27.0963 49.0253 29.2159 49.0253 31.426V32.186C47.8395 31.0877 46.3594 30.3587 44.7659 30.0879C43.1725 29.8171 41.5346 30.0163 40.0525 30.6612C38.5704 31.3061 37.3083 32.3687 36.4203 33.7192C35.5323 35.0697 35.0569 36.6496 35.0522 38.2659V48.9325C33.0245 49.3226 31.1957 50.406 29.8796 51.9971C28.5634 53.5881 27.842 55.5876 27.8389 57.6524V73.3989C27.7973 78.0852 29.0564 82.6911 31.4762 86.7045C33.896 90.7179 37.3816 93.9814 41.5454 96.132V119.598C41.5454 119.952 41.6859 120.291 41.9359 120.541C42.186 120.791 42.5251 120.932 42.8787 120.932C43.2324 120.932 43.5715 120.791 43.8215 120.541C44.0716 120.291 44.2121 119.952 44.2121 119.598V95.2787C44.213 95.0185 44.1377 94.7637 43.9955 94.5457C43.8534 94.3277 43.6506 94.1561 43.4121 94.052C35.7055 90.6787 30.5189 82.3855 30.5189 73.3989V57.6391C30.5189 55.9912 31.1735 54.4108 32.3387 53.2456C33.5039 52.0804 35.0843 51.4258 36.7321 51.4258H62.8252C62.1719 54.9724 59.5186 63.6923 49.2653 62.9857H42.0121C41.6585 62.9857 41.3193 63.1262 41.0693 63.3762C40.8192 63.6263 40.6788 63.9654 40.6788 64.319C40.6788 64.6726 40.8192 65.0118 41.0693 65.2618C41.3193 65.5119 41.6585 65.6523 42.0121 65.6523H48.172C48.3587 65.7457 48.732 65.999 48.9187 66.119L49.412 66.4523C50.951 67.3398 52.4378 68.3147 53.8653 69.3723C56.6711 71.3335 59.0897 73.7972 60.9985 76.6389C63.0252 79.8522 63.0119 82.3588 63.0119 86.1721C63.0119 86.5257 63.1523 86.8649 63.4024 87.1149C63.6524 87.365 63.9916 87.5054 64.3452 87.5054C64.6988 87.5054 65.0379 87.365 65.288 87.1149C65.538 86.8649 65.6785 86.5257 65.6785 86.1721C65.6785 85.6388 65.9718 72.9989 79.2117 72.3856C79.5653 72.3679 79.8974 72.2105 80.135 71.9479C80.3725 71.6854 80.496 71.3392 80.4783 70.9856C80.4607 70.632 80.3032 70.2999 80.0407 70.0623C79.7781 69.8248 79.432 69.7013 79.0784 69.719C70.8918 70.1056 66.8651 74.5189 64.8918 78.6655C64.4928 77.4499 63.9418 76.2896 63.2519 75.2122C61.1733 72.0783 58.5226 69.3642 55.4386 67.2123C54.6386 66.6256 53.8253 66.0523 52.9853 65.5057C59.9186 64.479 63.0919 59.1991 64.5318 55.1191C65.2119 56.0917 66.0924 56.9073 67.1142 57.5109C68.1359 58.1146 69.2751 58.4923 70.4551 58.6187C71.6351 58.745 72.8285 58.617 73.9549 58.2434C75.0813 57.8697 76.1145 57.259 76.985 56.4524V57.3324C76.9773 58.9588 77.4464 60.5518 78.3343 61.9145C79.2223 63.2771 80.4901 64.3496 81.9811 64.9993C83.4721 65.6491 85.1209 65.8476 86.7235 65.5703C88.3261 65.2929 89.8123 64.552 90.9982 63.439V73.3989C91.0501 77.7158 89.8614 81.9569 87.5735 85.618C85.2855 89.2792 81.9946 92.2065 78.0917 94.052C77.8532 94.1561 77.6504 94.3277 77.5082 94.5457C77.3661 94.7637 77.2908 95.0185 77.2917 95.2787V119.598C77.2917 119.952 77.4322 120.291 77.6822 120.541C77.9323 120.791 78.2714 120.932 78.625 120.932C78.9786 120.932 79.3178 120.791 79.5678 120.541C79.8179 120.291 79.9583 119.952 79.9583 119.598V96.132C84.1222 93.9814 87.6078 90.7179 90.0276 86.7045C92.4474 82.6911 93.7065 78.0852 93.6649 73.3989V45.4792C93.6614 43.2725 92.7841 41.1569 91.2249 39.5953C89.6658 38.0337 87.5517 37.153 85.345 37.146ZM37.7321 48.7592V38.2659C37.8512 36.8539 38.4963 35.538 39.5396 34.579C40.5829 33.62 41.9483 33.0878 43.3654 33.0878C44.7825 33.0878 46.1479 33.62 47.1912 34.579C48.2345 35.538 48.8796 36.8539 48.9987 38.2659V48.7325L37.7321 48.7592ZM51.7186 48.7592V31.426C51.7186 29.9267 52.3143 28.4887 53.3744 27.4286C54.4346 26.3684 55.8726 25.7727 57.3719 25.7727C58.8713 25.7727 60.3092 26.3684 61.3694 27.4286C62.4296 28.4887 63.0252 29.9267 63.0252 31.426V48.7592H51.7186ZM71.3584 55.9991C69.8591 55.9991 68.4212 55.4035 67.361 54.3433C66.3008 53.2831 65.7052 51.8452 65.7052 50.3458V38.1726C65.7052 36.6733 66.3008 35.2353 67.361 34.1751C68.4212 33.115 69.8591 32.5193 71.3584 32.5193C72.8578 32.5193 74.2957 33.115 75.3559 34.1751C76.4161 35.2353 77.0117 36.6733 77.0117 38.1726V50.3458C77.0082 51.8441 76.4114 53.28 75.352 54.3394C74.2926 55.3988 72.8567 55.9956 71.3584 55.9991ZM85.345 62.9857C84.6008 62.9874 83.8636 62.8426 83.1754 62.5594C82.4873 62.2763 81.8616 61.8604 81.3341 61.3354C80.8067 60.8105 80.3879 60.1867 80.1015 59.4999C79.8151 58.8131 79.6668 58.0766 79.665 57.3324V45.4792C79.7356 44.0256 80.3627 42.6549 81.4164 41.6511C82.4701 40.6473 83.8697 40.0874 85.325 40.0874C86.7803 40.0874 88.1798 40.6473 89.2335 41.6511C90.2872 42.6549 90.9143 44.0256 90.9849 45.4792V57.3324C90.9814 58.8284 90.3865 60.2623 89.3299 61.3213C88.2734 62.3804 86.8409 62.9787 85.345 62.9857Z"/>
</mask>
<path d="M85.345 37.146C83.2359 37.1445 81.2053 37.9453 79.665 39.3859V38.1726C79.665 35.9648 78.7889 33.8472 77.229 32.2848C75.6691 30.7224 73.5529 29.8429 71.3451 29.8394C69.2456 29.833 67.2231 30.6296 65.6918 32.066V31.426C65.6918 29.2159 64.8139 27.0963 63.2511 25.5335C61.6883 23.9707 59.5687 23.0928 57.3586 23.0928C55.1485 23.0928 53.0289 23.9707 51.4661 25.5335C49.9033 27.0963 49.0253 29.2159 49.0253 31.426V32.186C47.8395 31.0877 46.3594 30.3587 44.7659 30.0879C43.1725 29.8171 41.5346 30.0163 40.0525 30.6612C38.5704 31.3061 37.3083 32.3687 36.4203 33.7192C35.5323 35.0697 35.0569 36.6496 35.0522 38.2659V48.9325C33.0245 49.3226 31.1957 50.406 29.8796 51.9971C28.5634 53.5881 27.842 55.5876 27.8389 57.6524V73.3989C27.7973 78.0852 29.0564 82.6911 31.4762 86.7045C33.896 90.7179 37.3816 93.9814 41.5454 96.132V119.598C41.5454 119.952 41.6859 120.291 41.9359 120.541C42.186 120.791 42.5251 120.932 42.8787 120.932C43.2324 120.932 43.5715 120.791 43.8215 120.541C44.0716 120.291 44.2121 119.952 44.2121 119.598V95.2787C44.213 95.0185 44.1377 94.7637 43.9955 94.5457C43.8534 94.3277 43.6506 94.1561 43.4121 94.052C35.7055 90.6787 30.5189 82.3855 30.5189 73.3989V57.6391C30.5189 55.9912 31.1735 54.4108 32.3387 53.2456C33.5039 52.0804 35.0843 51.4258 36.7321 51.4258H62.8252C62.1719 54.9724 59.5186 63.6923 49.2653 62.9857H42.0121C41.6585 62.9857 41.3193 63.1262 41.0693 63.3762C40.8192 63.6263 40.6788 63.9654 40.6788 64.319C40.6788 64.6726 40.8192 65.0118 41.0693 65.2618C41.3193 65.5119 41.6585 65.6523 42.0121 65.6523H48.172C48.3587 65.7457 48.732 65.999 48.9187 66.119L49.412 66.4523C50.951 67.3398 52.4378 68.3147 53.8653 69.3723C56.6711 71.3335 59.0897 73.7972 60.9985 76.6389C63.0252 79.8522 63.0119 82.3588 63.0119 86.1721C63.0119 86.5257 63.1523 86.8649 63.4024 87.1149C63.6524 87.365 63.9916 87.5054 64.3452 87.5054C64.6988 87.5054 65.0379 87.365 65.288 87.1149C65.538 86.8649 65.6785 86.5257 65.6785 86.1721C65.6785 85.6388 65.9718 72.9989 79.2117 72.3856C79.5653 72.3679 79.8974 72.2105 80.135 71.9479C80.3725 71.6854 80.496 71.3392 80.4783 70.9856C80.4607 70.632 80.3032 70.2999 80.0407 70.0623C79.7781 69.8248 79.432 69.7013 79.0784 69.719C70.8918 70.1056 66.8651 74.5189 64.8918 78.6655C64.4928 77.4499 63.9418 76.2896 63.2519 75.2122C61.1733 72.0783 58.5226 69.3642 55.4386 67.2123C54.6386 66.6256 53.8253 66.0523 52.9853 65.5057C59.9186 64.479 63.0919 59.1991 64.5318 55.1191C65.2119 56.0917 66.0924 56.9073 67.1142 57.5109C68.1359 58.1146 69.2751 58.4923 70.4551 58.6187C71.6351 58.745 72.8285 58.617 73.9549 58.2434C75.0813 57.8697 76.1145 57.259 76.985 56.4524V57.3324C76.9773 58.9588 77.4464 60.5518 78.3343 61.9145C79.2223 63.2771 80.4901 64.3496 81.9811 64.9993C83.4721 65.6491 85.1209 65.8476 86.7235 65.5703C88.3261 65.2929 89.8123 64.552 90.9982 63.439V73.3989C91.0501 77.7158 89.8614 81.9569 87.5735 85.618C85.2855 89.2792 81.9946 92.2065 78.0917 94.052C77.8532 94.1561 77.6504 94.3277 77.5082 94.5457C77.3661 94.7637 77.2908 95.0185 77.2917 95.2787V119.598C77.2917 119.952 77.4322 120.291 77.6822 120.541C77.9323 120.791 78.2714 120.932 78.625 120.932C78.9786 120.932 79.3178 120.791 79.5678 120.541C79.8179 120.291 79.9583 119.952 79.9583 119.598V96.132C84.1222 93.9814 87.6078 90.7179 90.0276 86.7045C92.4474 82.6911 93.7065 78.0852 93.6649 73.3989V45.4792C93.6614 43.2725 92.7841 41.1569 91.2249 39.5953C89.6658 38.0337 87.5517 37.153 85.345 37.146ZM37.7321 48.7592V38.2659C37.8512 36.8539 38.4963 35.538 39.5396 34.579C40.5829 33.62 41.9483 33.0878 43.3654 33.0878C44.7825 33.0878 46.1479 33.62 47.1912 34.579C48.2345 35.538 48.8796 36.8539 48.9987 38.2659V48.7325L37.7321 48.7592ZM51.7186 48.7592V31.426C51.7186 29.9267 52.3143 28.4887 53.3744 27.4286C54.4346 26.3684 55.8726 25.7727 57.3719 25.7727C58.8713 25.7727 60.3092 26.3684 61.3694 27.4286C62.4296 28.4887 63.0252 29.9267 63.0252 31.426V48.7592H51.7186ZM71.3584 55.9991C69.8591 55.9991 68.4212 55.4035 67.361 54.3433C66.3008 53.2831 65.7052 51.8452 65.7052 50.3458V38.1726C65.7052 36.6733 66.3008 35.2353 67.361 34.1751C68.4212 33.115 69.8591 32.5193 71.3584 32.5193C72.8578 32.5193 74.2957 33.115 75.3559 34.1751C76.4161 35.2353 77.0117 36.6733 77.0117 38.1726V50.3458C77.0082 51.8441 76.4114 53.28 75.352 54.3394C74.2926 55.3988 72.8567 55.9956 71.3584 55.9991ZM85.345 62.9857C84.6008 62.9874 83.8636 62.8426 83.1754 62.5594C82.4873 62.2763 81.8616 61.8604 81.3341 61.3354C80.8067 60.8105 80.3879 60.1867 80.1015 59.4999C79.8151 58.8131 79.6668 58.0766 79.665 57.3324V45.4792C79.7356 44.0256 80.3627 42.6549 81.4164 41.6511C82.4701 40.6473 83.8697 40.0874 85.325 40.0874C86.7803 40.0874 88.1798 40.6473 89.2335 41.6511C90.2872 42.6549 90.9143 44.0256 90.9849 45.4792V57.3324C90.9814 58.8284 90.3865 60.2623 89.3299 61.3213C88.2734 62.3804 86.8409 62.9787 85.345 62.9857Z" fill="#EF5278"/>
<path d="M85.345 37.146C83.2359 37.1445 81.2053 37.9453 79.665 39.3859V38.1726C79.665 35.9648 78.7889 33.8472 77.229 32.2848C75.6691 30.7224 73.5529 29.8429 71.3451 29.8394C69.2456 29.833 67.2231 30.6296 65.6918 32.066V31.426C65.6918 29.2159 64.8139 27.0963 63.2511 25.5335C61.6883 23.9707 59.5687 23.0928 57.3586 23.0928C55.1485 23.0928 53.0289 23.9707 51.4661 25.5335C49.9033 27.0963 49.0253 29.2159 49.0253 31.426V32.186C47.8395 31.0877 46.3594 30.3587 44.7659 30.0879C43.1725 29.8171 41.5346 30.0163 40.0525 30.6612C38.5704 31.3061 37.3083 32.3687 36.4203 33.7192C35.5323 35.0697 35.0569 36.6496 35.0522 38.2659V48.9325C33.0245 49.3226 31.1957 50.406 29.8796 51.9971C28.5634 53.5881 27.842 55.5876 27.8389 57.6524V73.3989C27.7973 78.0852 29.0564 82.6911 31.4762 86.7045C33.896 90.7179 37.3816 93.9814 41.5454 96.132V119.598C41.5454 119.952 41.6859 120.291 41.9359 120.541C42.186 120.791 42.5251 120.932 42.8787 120.932C43.2324 120.932 43.5715 120.791 43.8215 120.541C44.0716 120.291 44.2121 119.952 44.2121 119.598V95.2787C44.213 95.0185 44.1377 94.7637 43.9955 94.5457C43.8534 94.3277 43.6506 94.1561 43.4121 94.052C35.7055 90.6787 30.5189 82.3855 30.5189 73.3989V57.6391C30.5189 55.9912 31.1735 54.4108 32.3387 53.2456C33.5039 52.0804 35.0843 51.4258 36.7321 51.4258H62.8252C62.1719 54.9724 59.5186 63.6923 49.2653 62.9857H42.0121C41.6585 62.9857 41.3193 63.1262 41.0693 63.3762C40.8192 63.6263 40.6788 63.9654 40.6788 64.319C40.6788 64.6726 40.8192 65.0118 41.0693 65.2618C41.3193 65.5119 41.6585 65.6523 42.0121 65.6523H48.172C48.3587 65.7457 48.732 65.999 48.9187 66.119L49.412 66.4523C50.951 67.3398 52.4378 68.3147 53.8653 69.3723C56.6711 71.3335 59.0897 73.7972 60.9985 76.6389C63.0252 79.8522 63.0119 82.3588 63.0119 86.1721C63.0119 86.5257 63.1523 86.8649 63.4024 87.1149C63.6524 87.365 63.9916 87.5054 64.3452 87.5054C64.6988 87.5054 65.0379 87.365 65.288 87.1149C65.538 86.8649 65.6785 86.5257 65.6785 86.1721C65.6785 85.6388 65.9718 72.9989 79.2117 72.3856C79.5653 72.3679 79.8974 72.2105 80.135 71.9479C80.3725 71.6854 80.496 71.3392 80.4783 70.9856C80.4607 70.632 80.3032 70.2999 80.0407 70.0623C79.7781 69.8248 79.432 69.7013 79.0784 69.719C70.8918 70.1056 66.8651 74.5189 64.8918 78.6655C64.4928 77.4499 63.9418 76.2896 63.2519 75.2122C61.1733 72.0783 58.5226 69.3642 55.4386 67.2123C54.6386 66.6256 53.8253 66.0523 52.9853 65.5057C59.9186 64.479 63.0919 59.1991 64.5318 55.1191C65.2119 56.0917 66.0924 56.9073 67.1142 57.5109C68.1359 58.1146 69.2751 58.4923 70.4551 58.6187C71.6351 58.745 72.8285 58.617 73.9549 58.2434C75.0813 57.8697 76.1145 57.259 76.985 56.4524V57.3324C76.9773 58.9588 77.4464 60.5518 78.3343 61.9145C79.2223 63.2771 80.4901 64.3496 81.9811 64.9993C83.4721 65.6491 85.1209 65.8476 86.7235 65.5703C88.3261 65.2929 89.8123 64.552 90.9982 63.439V73.3989C91.0501 77.7158 89.8614 81.9569 87.5735 85.618C85.2855 89.2792 81.9946 92.2065 78.0917 94.052C77.8532 94.1561 77.6504 94.3277 77.5082 94.5457C77.3661 94.7637 77.2908 95.0185 77.2917 95.2787V119.598C77.2917 119.952 77.4322 120.291 77.6822 120.541C77.9323 120.791 78.2714 120.932 78.625 120.932C78.9786 120.932 79.3178 120.791 79.5678 120.541C79.8179 120.291 79.9583 119.952 79.9583 119.598V96.132C84.1222 93.9814 87.6078 90.7179 90.0276 86.7045C92.4474 82.6911 93.7065 78.0852 93.6649 73.3989V45.4792C93.6614 43.2725 92.7841 41.1569 91.2249 39.5953C89.6658 38.0337 87.5517 37.153 85.345 37.146ZM37.7321 48.7592V38.2659C37.8512 36.8539 38.4963 35.538 39.5396 34.579C40.5829 33.62 41.9483 33.0878 43.3654 33.0878C44.7825 33.0878 46.1479 33.62 47.1912 34.579C48.2345 35.538 48.8796 36.8539 48.9987 38.2659V48.7325L37.7321 48.7592ZM51.7186 48.7592V31.426C51.7186 29.9267 52.3143 28.4887 53.3744 27.4286C54.4346 26.3684 55.8726 25.7727 57.3719 25.7727C58.8713 25.7727 60.3092 26.3684 61.3694 27.4286C62.4296 28.4887 63.0252 29.9267 63.0252 31.426V48.7592H51.7186ZM71.3584 55.9991C69.8591 55.9991 68.4212 55.4035 67.361 54.3433C66.3008 53.2831 65.7052 51.8452 65.7052 50.3458V38.1726C65.7052 36.6733 66.3008 35.2353 67.361 34.1751C68.4212 33.115 69.8591 32.5193 71.3584 32.5193C72.8578 32.5193 74.2957 33.115 75.3559 34.1751C76.4161 35.2353 77.0117 36.6733 77.0117 38.1726V50.3458C77.0082 51.8441 76.4114 53.28 75.352 54.3394C74.2926 55.3988 72.8567 55.9956 71.3584 55.9991ZM85.345 62.9857C84.6008 62.9874 83.8636 62.8426 83.1754 62.5594C82.4873 62.2763 81.8616 61.8604 81.3341 61.3354C80.8067 60.8105 80.3879 60.1867 80.1015 59.4999C79.8151 58.8131 79.6668 58.0766 79.665 57.3324V45.4792C79.7356 44.0256 80.3627 42.6549 81.4164 41.6511C82.4701 40.6473 83.8697 40.0874 85.325 40.0874C86.7803 40.0874 88.1798 40.6473 89.2335 41.6511C90.2872 42.6549 90.9143 44.0256 90.9849 45.4792V57.3324C90.9814 58.8284 90.3865 60.2623 89.3299 61.3213C88.2734 62.3804 86.8409 62.9787 85.345 62.9857Z" stroke="#EF5278" stroke-width="2" mask="url(#path-1-outside-1_62_164)"/>
<path d="M61.2122 13.0332C61.6985 13.0332 62.1648 12.8401 62.5086 12.4962C62.8524 12.1524 63.0455 11.6861 63.0455 11.1999V2.33332C63.0455 1.84709 62.8524 1.38078 62.5086 1.03697C62.1648 0.693152 61.6985 0.5 61.2122 0.5C60.726 0.5 60.2597 0.693152 59.9159 1.03697C59.5721 1.38078 59.3789 1.84709 59.3789 2.33332V11.1999C59.3789 11.6861 59.5721 12.1524 59.9159 12.4962C60.2597 12.8401 60.726 13.0332 61.2122 13.0332Z" fill="#EF5278" stroke="#EF5278"/>
<path d="M12.7199 58.9795H2.33332C1.84709 58.9795 1.38078 59.1726 1.03697 59.5165C0.693153 59.8603 0.5 60.3266 0.5 60.8128C0.5 61.299 0.693153 61.7654 1.03697 62.1092C1.38078 62.453 1.84709 62.6461 2.33332 62.6461H12.7199C13.2061 62.6461 13.6724 62.453 14.0162 62.1092C14.36 61.7654 14.5532 61.299 14.5532 60.8128C14.5532 60.3266 14.36 59.8603 14.0162 59.5165C13.6724 59.1726 13.2061 58.9795 12.7199 58.9795Z" fill="#EF5278" stroke="#EF5278"/>
<path d="M18.9954 19.8351C18.9951 19.8348 18.9948 19.8345 18.9945 19.8341C18.8231 19.6639 18.687 19.4615 18.5941 19.2385C18.501 19.0151 18.4531 18.7755 18.4531 18.5334C18.4531 18.2914 18.501 18.0518 18.5941 17.8284C18.6869 17.6056 18.8228 17.4034 18.994 17.2332C19.1641 17.0621 19.3663 16.9262 19.5891 16.8334C19.8125 16.7403 20.0522 16.6924 20.2942 16.6924C20.5362 16.6924 20.7758 16.7403 20.9992 16.8334C21.2224 16.9263 21.4249 17.0625 21.5952 17.234C21.5954 17.2343 21.5956 17.2345 21.5958 17.2347L28.9262 24.5784C28.9265 24.5787 28.9268 24.579 28.9272 24.5793C29.0985 24.7496 29.2346 24.952 29.3275 25.175C29.4206 25.3984 29.4685 25.638 29.4685 25.88C29.4685 26.122 29.4206 26.3617 29.3275 26.5851C29.2344 26.8085 29.098 27.0112 28.9262 27.1817L18.9954 19.8351ZM18.9954 19.8351L26.3269 27.1799L26.3287 27.1817C26.5 27.3516 26.7031 27.486 26.9265 27.5772C27.149 27.6681 27.3871 27.7144 27.6274 27.7133C27.8677 27.7144 28.1059 27.6681 28.3284 27.5772C28.5517 27.486 28.7549 27.3516 28.9262 27.1817L18.9954 19.8351Z" fill="#EF5278" stroke="#EF5278"/>
<path d="M101.698 16.7494V16.3496L100.844 17.2069L93.4982 24.5792C93.3269 24.7494 93.1909 24.9518 93.098 25.1747C93.005 25.398 92.957 25.6377 92.957 25.8797C92.957 26.1217 93.005 26.3614 93.098 26.5848C93.1911 26.8082 93.3275 27.0109 93.4993 27.1814L101.698 16.7494Z" fill="#EF5278" stroke="#EF5278"/>
<path d="M119.667 58.9795H109.281C108.794 58.9795 108.328 59.1726 107.984 59.5165C107.64 59.8603 107.447 60.3266 107.447 60.8128C107.447 61.299 107.64 61.7654 107.984 62.1092C108.328 62.453 108.794 62.6461 109.281 62.6461H119.667C120.153 62.6461 120.62 62.453 120.963 62.1092L120.61 61.7556L120.963 62.1092C121.307 61.7654 121.5 61.299 121.5 60.8128C121.5 60.3266 121.307 59.8603 120.963 59.5165L120.61 59.87L120.963 59.5165C120.62 59.1726 120.153 58.9795 119.667 58.9795Z" fill="#EF5278" stroke="#EF5278"/>
</svg>
